<svg xmlns="http://www.w3.org/2000/svg" viewBox="0 0 800 450" width="100%" height="100%">
  <defs>
    <linearGradient id="blogGrad1" x1="0%" y1="0%" x2="100%" y2="100%">
      <stop offset="0%" stop-color="#0E0C22" />
      <stop offset="100%" stop-color="#241E4D" />
    </linearGradient>
    <linearGradient id="textGrad" x1="0%" y1="0%" x2="100%" y2="0%">
      <stop offset="0%" stop-color="#FFFFFF" />
      <stop offset="100%" stop-color="#9B8FFF" />
    </linearGradient>
  </defs>
  <rect width="800" height="450" fill="url(#blogGrad1)" rx="20"/>

  <circle cx="600" cy="200" r="160" fill="#493CEB" opacity="0.15" />
  
  <text x="70" y="110" fill="#7669FF" font-family="sans-serif" font-size="14" font-weight="bold" letter-spacing="3">2026 AUTHORITY BLUEPRINT</text>
  <text x="70" y="165" fill="url(#textGrad)" font-family="sans-serif" font-size="34" font-weight="bold">Google Entity Reconciliation</text>
  <text x="70" y="205" fill="url(#textGrad)" font-family="sans-serif" font-size="34" font-weight="bold">&amp; Knowledge Graphs</text>
  
  <rect x="70" y="245" width="220" height="2" fill="#493CEB" />
  <text x="70" y="280" fill="rgba(255,255,255,0.7)" font-family="sans-serif" font-size="15">Strategic PR • JSON-LD Schema • Entity Descriptors</text>

  <!-- Node Network Visualization -->
  <g transform="translate(540, 160)">
    <circle cx="0" cy="0" r="36" fill="#493CEB" />
    <text x="0" y="6" text-anchor="middle" fill="#FFFFFF" font-family="sans-serif" font-size="12" font-weight="bold">ENTITY</text>
    
    <circle cx="-90" cy="-60" r="22" fill="rgba(255,255,255,0.1)" stroke="#7669FF" stroke-width="2" />
    <line x1="-25" y1="-15" x2="-70" y2="-45" stroke="#7669FF" stroke-width="2" />
    
    <circle cx="90" cy="-40" r="22" fill="rgba(255,255,255,0.1)" stroke="#7669FF" stroke-width="2" />
    <line x1="25" y1="-10" x2="70" y2="-30" stroke="#7669FF" stroke-width="2" />

    <circle cx="-60" cy="90" r="22" fill="rgba(255,255,255,0.1)" stroke="#7669FF" stroke-width="2" />
    <line x1="-15" y1="25" x2="-45" y2="70" stroke="#7669FF" stroke-width="2" />

    <circle cx="80" cy="80" r="22" fill="rgba(255,255,255,0.1)" stroke="#7669FF" stroke-width="2" />
    <line x1="20" y1="20" x2="65" y2="65" stroke="#7669FF" stroke-width="2" />
  </g>
</svg>
